<svg width="18" height="18" viewBox="0 0 18 18" fill="none" xmlns="http://www.w3.org/2000/svg">
<path d="M12.8876 0.675117C14.0863 0.600194 15.2685 1.01643 16.1592 1.83225C16.975 2.723 17.3913 3.90511 17.3247 5.11219V12.8875C17.3996 14.0946 16.975 15.2767 16.1675 16.1674C15.2768 16.9832 14.0863 17.3995 12.8876 17.3246H5.11223C3.90513 17.3995 2.72301 16.9832 1.83226 16.1674C1.01643 15.2767 0.600194 14.0946 0.675117 12.8875V5.11219C0.600194 3.90511 1.01643 2.723 1.83226 1.83225C2.72301 1.01643 3.90513 0.600194 5.11223 0.675117H12.8876ZM12.6711 4.47951C12.155 3.96338 11.3225 3.96338 10.8064 4.47951L10.2486 5.0456C10.1654 5.12884 10.1654 5.27036 10.2486 5.35361C10.2486 5.35361 10.265 5.36985 10.294 5.39876L10.4988 5.60241C10.6173 5.72026 10.7651 5.86743 10.9136 6.01543L11.417 6.51859C11.522 6.62411 11.5917 6.69482 11.5972 6.70221C11.6888 6.80211 11.7471 6.93531 11.7471 7.08515C11.7471 7.38484 11.5057 7.63458 11.1976 7.63458C11.0561 7.63458 10.9229 7.57631 10.8314 7.48474L9.44112 6.10283C9.37452 6.03624 9.25797 6.03624 9.19137 6.10283L5.22045 10.0737C4.94573 10.3484 4.78756 10.7147 4.77924 11.106L4.72929 13.079C4.72929 13.1872 4.76259 13.2871 4.83751 13.362C4.91243 13.4369 5.01233 13.4785 5.12055 13.4785H7.07688C7.47647 13.4785 7.85941 13.3204 8.15078 13.0373L13.7534 7.41814C14.2612 6.90201 14.2612 6.06954 13.7534 5.56173L12.6711 4.47951Z" fill="#999999"/>
</svg>
