<svg width="51" height="71" viewBox="0 0 51 71" fill="none" xmlns="http://www.w3.org/2000/svg">
<path d="M17.5 68.5844L29.9053 30.1188L17.1146 26.0415L4.69887 64.445C4.10517 66.287 5.8342 67.7876 7.3445 66.7424L12.0837 63.524L14.0107 68.9156C14.6148 70.6541 16.8959 70.4161 17.5 68.5844Z" fill="#EBF0F9"/>
<path d="M32.9151 68.5844L20.416 30.1188L33.2171 26.0415L45.6745 64.445C46.2682 66.287 44.5392 67.7876 43.0289 66.7424L38.3001 63.4722L36.3731 68.8638C35.7586 70.6541 33.4671 70.4161 32.9151 68.5844Z" fill="#EBF0F9"/>
<path d="M40.9369 48.9217C37.5066 51.9937 33.2504 54.0073 28.6878 54.7168L24.1465 40.6428L28.8649 26.0099L24.1465 24.5094L32.2188 21.9326L40.9369 48.9217Z" fill="white"/>
<path d="M21.4584 24.944L26.2289 39.6079L21.7709 53.3715C17.2092 52.3623 13.0493 50.0366 9.81348 46.6864L18.1462 20.8667L26.2289 23.4435L21.4584 24.944Z" fill="white"/>
<path d="M15.5831 70.0946C15.0095 70.0947 14.4509 69.9131 13.9883 69.5763C13.5256 69.2395 13.1831 68.7649 13.0103 68.2215L11.5417 64.0821L7.91699 66.6072C7.45172 66.9507 6.88744 67.1363 6.30774 67.1363C5.72803 67.1363 5.16375 66.9507 4.69848 66.6072C4.18197 66.21 3.80371 65.6619 3.61688 65.0401C3.43006 64.4183 3.44405 63.7539 3.6569 63.1404L16.4372 23.7124L31.2173 28.421L18.4891 67.8594C18.3068 68.4827 17.9324 69.0336 17.4186 69.4345C16.9048 69.8355 16.2774 70.0663 15.6247 70.0946H15.5831ZM12.5937 60.8637L14.9789 67.5489C15.0075 67.6878 15.0829 67.8127 15.1928 67.9031C15.3027 67.9935 15.4404 68.0438 15.5831 68.0456C15.7988 68.0231 16.0021 67.9342 16.1646 67.7914C16.327 67.6485 16.4405 67.4588 16.4892 67.2488L28.6029 29.756L17.7808 26.3099L5.68799 63.7717C5.60524 63.9704 5.58686 64.1898 5.63539 64.3993C5.68393 64.6089 5.79697 64.7983 5.9588 64.9411C6.07128 65.0301 6.21082 65.0785 6.35461 65.0785C6.49839 65.0785 6.63793 65.0301 6.75041 64.9411L12.5937 60.8637Z" fill="#606060"/>
<path d="M34.7905 70.0946C34.1287 70.077 33.4897 69.8511 32.9655 69.4493C32.4413 69.0476 32.0591 68.4908 31.874 67.8594L19.1562 28.421L33.9572 23.7124L46.6646 63.1404C46.8774 63.7539 46.8914 64.4183 46.7046 65.0401C46.5177 65.6619 46.1395 66.21 45.623 66.6072C45.1577 66.9507 44.5934 67.1363 44.0137 67.1363C43.434 67.1363 42.8697 66.9507 42.4045 66.6072L38.8006 64.1132L37.3319 68.2526C37.1555 68.7852 36.8153 69.2493 36.3594 69.5798C35.9035 69.9102 35.3548 70.0903 34.7905 70.0946ZM33.8739 67.2281C33.9226 67.4381 34.0361 67.6278 34.1985 67.7707C34.361 67.9135 34.5643 68.0024 34.7801 68.0249C34.9245 68.0254 35.0646 67.9762 35.1767 67.8857C35.2887 67.7951 35.3657 67.6688 35.3946 67.5282L37.7798 60.8534L43.6231 64.8997C43.7348 64.9905 43.8746 65.0401 44.0189 65.0401C44.1632 65.0401 44.3031 64.9905 44.4147 64.8997C44.5766 64.7569 44.6896 64.5675 44.7381 64.3579C44.7867 64.1484 44.7683 63.929 44.6855 63.7303L32.5823 26.3099L21.7706 29.756L33.8739 67.2281Z" fill="#606060"/>
<path d="M26.0014 48.7875C39.2322 48.7875 49.9579 38.1311 49.9579 24.9858C49.9579 11.8405 39.2322 1.18408 26.0014 1.18408C12.7706 1.18408 2.04492 11.8405 2.04492 24.9858C2.04492 38.1311 12.7706 48.7875 26.0014 48.7875Z" fill="#EBF0F9"/>
<path d="M45.4675 9.79371C40.8718 6.03387 35.0316 4.10884 29.0853 4.39375C23.1389 4.67866 17.5123 7.15311 13.302 11.3349C9.09178 15.5166 6.5995 21.1061 6.3109 27.0139C6.0223 32.9218 7.95805 38.7248 11.7409 43.292C9.16177 41.1819 7.05535 38.5592 5.55699 35.5924C4.05862 32.6255 3.20144 29.38 3.04051 26.0644C2.87957 22.7488 3.41844 19.4365 4.6225 16.3401C5.82656 13.2437 7.66919 10.4318 10.032 8.08496C12.3948 5.73813 15.2256 3.90829 18.3425 2.71297C21.4594 1.51764 24.7935 0.983278 28.1306 1.1442C31.4677 1.30512 34.734 2.15776 37.7197 3.64736C40.7054 5.13696 43.3445 7.23057 45.4675 9.79371Z" fill="white"/>
<path d="M26.0006 49.8221C19.9992 49.8107 14.2022 47.6545 9.66855 43.7475C9.21026 43.3542 8.76932 42.9472 8.34574 42.5263C4.83728 39.0527 2.44654 34.6218 1.47688 29.7959C0.507225 24.97 1.00237 19.9668 2.89948 15.4209C4.79659 10.8751 8.01014 6.99171 12.1324 4.26346C16.2546 1.53522 21.0996 0.0851457 26.0527 0.097243C29.904 0.111906 33.6987 1.01902 37.1352 2.74647C37.3738 2.87357 37.5531 3.08795 37.6353 3.34418C37.7176 3.60042 37.6961 3.87839 37.5756 4.1192C37.4551 4.36001 37.245 4.54476 36.9897 4.63429C36.7345 4.72383 36.4542 4.71112 36.2082 4.59887C33.0394 3.02444 29.5435 2.20928 26.0006 2.2187C21.4649 2.21719 17.0307 3.55311 13.2597 6.05725C9.48865 8.56138 6.55044 12.1211 4.81717 16.2855C3.0839 20.45 2.63353 25.0318 3.52312 29.4507C4.41271 33.8697 6.60223 37.9269 9.81437 41.1086C10.2032 41.4949 10.6095 41.8675 11.033 42.2262C15.5742 46.0834 21.452 48.0259 27.4138 47.6398C33.3755 47.2537 38.9498 44.5696 42.9486 40.1594C46.9474 35.7492 49.0544 29.9618 48.8207 24.0305C48.587 18.0992 46.0309 12.4932 41.6974 8.40714C41.5975 8.31404 41.5171 8.20232 41.4607 8.07836C41.4043 7.95439 41.373 7.82059 41.3687 7.68462C41.3599 7.41001 41.4613 7.14317 41.6505 6.94281C41.8397 6.74246 42.1013 6.62499 42.3777 6.61626C42.5146 6.61193 42.6509 6.63444 42.779 6.68248C42.9072 6.73052 43.0245 6.80315 43.1243 6.89625C46.7723 10.3061 49.3051 14.726 50.3946 19.5831C51.4841 24.4402 51.0799 29.5105 49.2345 34.1366C47.389 38.7627 44.1874 42.7315 40.0447 45.5282C35.902 48.325 31.0092 49.821 26.0006 49.8221Z" fill="#606060"/>
<path d="M30.5212 33.0265L27.0944 31.5467C26.9143 31.4685 26.7176 31.4352 26.5216 31.4496C26.3256 31.4641 26.1361 31.5258 25.9695 31.6295L22.8447 33.5957C22.6529 33.718 22.4303 33.7839 22.2024 33.7859C21.9745 33.7878 21.7507 33.7257 21.5569 33.6067C21.363 33.4876 21.207 33.3166 21.1068 33.1132C21.0066 32.9098 20.9664 32.6825 20.9907 32.4574L21.3448 28.7629C21.3635 28.5689 21.3344 28.3734 21.26 28.1931C21.1856 28.0128 21.0682 27.8532 20.9178 27.7281L18.0118 25.3272C17.8453 25.1817 17.7223 24.9934 17.6563 24.7831C17.5903 24.5728 17.5839 24.3485 17.6376 24.1347C17.6914 23.921 17.8034 23.7261 17.9612 23.5714C18.1191 23.4166 18.3167 23.308 18.5325 23.2575L22.1781 22.4503C22.3707 22.4088 22.5502 22.3211 22.7009 22.1948C22.8516 22.0685 22.9689 21.9075 23.0426 21.7259L24.4488 18.2798C24.5224 18.0553 24.6609 17.8574 24.8472 17.7108C25.0334 17.5641 25.2591 17.4753 25.4959 17.4554C25.7326 17.4356 25.9701 17.4855 26.1784 17.599C26.3868 17.7125 26.5569 17.8845 26.6673 18.0936L28.563 21.2913C28.6625 21.4596 28.8017 21.6012 28.9687 21.704C29.1357 21.8068 29.3253 21.8676 29.5213 21.8811L33.2502 22.1398C33.4761 22.1545 33.6934 22.2319 33.8773 22.3633C34.0611 22.4947 34.204 22.6748 34.2898 22.883C34.3756 23.0912 34.4008 23.3192 34.3624 23.5409C34.3241 23.7627 34.2238 23.9693 34.073 24.1371L31.5941 26.9209C31.4635 27.0665 31.3705 27.2416 31.3234 27.4309C31.2762 27.6202 31.2761 27.8181 31.3232 28.0075L32.2294 31.6088C32.2987 31.8345 32.2995 32.0754 32.2317 32.3016C32.1639 32.5277 32.0306 32.729 31.8483 32.8802C31.6661 33.0315 31.443 33.126 31.207 33.1521C30.9709 33.1781 30.7324 33.1344 30.5212 33.0265Z" fill="#555555"/>
<path d="M31.551 26.9314C31.4296 27.0719 31.3428 27.2386 31.2976 27.4182C31.2524 27.5979 31.25 27.7855 31.2906 27.9663L32.1864 31.5675C32.244 31.7868 32.2379 32.0178 32.1689 32.2338C32.0999 32.4498 31.9708 32.642 31.7965 32.7881C31.6221 32.9342 31.4097 33.0284 31.1838 33.0596C30.9579 33.0908 30.7277 33.0579 30.5198 32.9646L27.093 31.5365C26.9127 31.4592 26.7162 31.4264 26.5203 31.4408C26.3245 31.4552 26.135 31.5165 25.9681 31.6193L22.8434 33.5855C22.6516 33.7078 22.4289 33.7738 22.201 33.7757C21.9731 33.7776 21.7494 33.7155 21.5555 33.5965C21.3616 33.4775 21.2056 33.3064 21.1054 33.103C21.0053 32.8997 20.965 32.6723 20.9893 32.4472L21.1768 30.5016L23.4579 29.0942C23.6239 28.9897 23.813 28.9267 24.0088 28.9105C24.2047 28.8943 24.4016 28.9253 24.5828 29.0011L28.0096 30.481C28.2175 30.5742 28.4477 30.6072 28.6736 30.576C28.8995 30.5447 29.1119 30.4506 29.2862 30.3045C29.4606 30.1583 29.5897 29.9661 29.6587 29.7502C29.7277 29.5342 29.7337 29.3032 29.6762 29.0839L28.7491 25.4826C28.7085 25.3019 28.7109 25.1142 28.7561 24.9346C28.8013 24.7549 28.8881 24.5882 29.0095 24.4477L31.0927 22.0469L33.1759 22.1918C33.4019 22.2064 33.6192 22.2838 33.803 22.4152C33.9868 22.5466 34.1298 22.7267 34.2156 22.9349C34.3013 23.1431 34.3265 23.3711 34.2882 23.5929C34.2498 23.8146 34.1495 24.0212 33.9987 24.189L31.551 26.9314Z" fill="#222222"/>
<path d="M22.1582 34.8165C21.8439 34.8164 21.533 34.7511 21.2455 34.6249C20.958 34.4987 20.7002 34.3143 20.4884 34.0835C20.2767 33.8527 20.1158 33.5805 20.0159 33.2844C19.916 32.9883 19.8794 32.6748 19.9083 32.3639L20.2625 28.6694C20.2641 28.6421 20.2593 28.6148 20.2485 28.5896C20.2376 28.5645 20.221 28.5422 20.2 28.5245L17.346 26.1547C17.0138 25.8854 16.7655 25.5277 16.6301 25.1234C16.4948 24.7191 16.478 24.2848 16.5818 23.8714C16.6855 23.458 16.9055 23.0824 17.2161 22.7886C17.5266 22.4947 17.9149 22.2947 18.3356 22.2119L21.9811 21.4047C22.0091 21.3995 22.0353 21.3873 22.0572 21.3692C22.0791 21.3511 22.0959 21.3277 22.1061 21.3012L23.481 17.8759C23.6372 17.4873 23.9001 17.15 24.2398 16.9025C24.5794 16.655 24.9822 16.5072 25.4022 16.476C25.8222 16.4447 26.2426 16.5312 26.6156 16.7256C26.9886 16.9201 27.2991 17.2146 27.5119 17.5758L29.4076 20.7735C29.4221 20.7968 29.4419 20.8164 29.4654 20.8308C29.489 20.8452 29.5155 20.8539 29.543 20.8563L33.2719 21.115C33.69 21.1467 34.0909 21.2934 34.4298 21.5385C34.7688 21.7837 35.0324 22.1176 35.1913 22.5031C35.3502 22.8886 35.398 23.3104 35.3294 23.7213C35.2609 24.1323 35.0786 24.5162 34.803 24.8301L32.3241 27.6139C32.3113 27.6378 32.3046 27.6644 32.3046 27.6915C32.3046 27.7185 32.3113 27.7452 32.3241 27.7691L33.199 31.329C33.3038 31.739 33.2898 32.17 33.1589 32.5725C33.0279 32.9749 32.7851 33.3324 32.4586 33.6039C32.1321 33.8753 31.7351 34.0496 31.3132 34.1067C30.8914 34.1637 30.4619 34.1013 30.0742 33.9265L26.6682 32.488C26.6439 32.4762 26.6172 32.47 26.5901 32.47C26.563 32.47 26.5363 32.4762 26.512 32.488L23.3873 34.4543C23.0216 34.6909 22.5946 34.8167 22.1582 34.8165ZM25.6267 18.5382C25.5946 18.5385 25.5634 18.5486 25.5373 18.5671C25.5112 18.5856 25.4915 18.6116 25.4808 18.6417L24.0747 22.0877C23.9375 22.4246 23.7198 22.7232 23.4403 22.9577C23.1608 23.1921 22.828 23.3553 22.4707 23.4331L18.8251 24.2402C18.7941 24.246 18.7655 24.2609 18.7432 24.2831C18.7209 24.3052 18.7059 24.3336 18.7001 24.3644C18.6889 24.3954 18.6878 24.4292 18.6972 24.4608C18.7066 24.4925 18.7258 24.5203 18.7522 24.5403L21.6166 26.9309C21.8971 27.165 22.1159 27.4637 22.2539 27.8009C22.3918 28.1382 22.4448 28.5038 22.4082 28.866L22.054 32.5605C22.0482 32.5933 22.0531 32.6271 22.0681 32.657C22.0831 32.6868 22.1074 32.711 22.1373 32.7261C22.1634 32.7439 22.1943 32.7534 22.2259 32.7534C22.2575 32.7534 22.2884 32.7439 22.3144 32.7261L25.4392 30.7598C25.7479 30.5685 26.0987 30.4545 26.4615 30.4274C26.8244 30.4004 27.1884 30.4612 27.5224 30.6046L30.9492 32.0844C30.9757 32.101 31.0064 32.1097 31.0377 32.1097C31.069 32.1097 31.0997 32.101 31.1262 32.0844C31.1526 32.0644 31.1719 32.0366 31.1812 32.0049C31.1906 31.9733 31.1896 31.9395 31.1783 31.9085L30.2721 28.2244C30.1757 27.8653 30.171 27.488 30.2583 27.1267C30.3455 26.7653 30.5222 26.4312 30.7721 26.1547L33.2511 23.371C33.269 23.3451 33.2786 23.3144 33.2786 23.283C33.2786 23.2516 33.269 23.2209 33.2511 23.195C33.2404 23.165 33.2207 23.139 33.1946 23.1205C33.1685 23.1019 33.1373 23.0919 33.1053 23.0915L29.3764 22.8328C29.0124 22.8064 28.6603 22.6929 28.3501 22.5018C28.04 22.3108 27.781 22.048 27.5953 21.7359L25.6996 18.5382C25.6756 18.5325 25.6506 18.5325 25.6267 18.5382Z" fill="#606060"/>
<path d="M2.35482 23.2576C2.10996 23.2573 1.87304 23.1713 1.68564 23.0147C1.49825 22.8581 1.37236 22.641 1.33009 22.4013C1.28782 22.1617 1.33187 21.915 1.45451 21.7044C1.57714 21.4938 1.77052 21.3329 2.00068 21.2499L17.2912 15.7342C17.4207 15.6834 17.5592 15.659 17.6985 15.6624C17.8377 15.6658 17.9748 15.6969 18.1017 15.7538C18.2286 15.8108 18.3428 15.8924 18.4374 15.994C18.532 16.0955 18.6051 16.2149 18.6525 16.345C18.6999 16.4751 18.7205 16.6133 18.7132 16.7515C18.7058 16.8897 18.6707 17.025 18.6098 17.1494C18.5489 17.2738 18.4635 17.3849 18.3587 17.476C18.2539 17.5671 18.1317 17.6363 17.9995 17.6797L2.70896 23.1955C2.59543 23.2364 2.4756 23.2574 2.35482 23.2576Z" fill="#606060"/>
<path d="M4.12851 17.7416C3.88675 17.7398 3.65314 17.6545 3.46775 17.5003C3.28235 17.3462 3.15672 17.1327 3.11239 16.8966C3.06806 16.6604 3.10778 16.4163 3.22476 16.2061C3.34174 15.9959 3.52869 15.8326 3.75354 15.7444L12.0862 12.6398C12.216 12.5829 12.356 12.553 12.4978 12.5518C12.6396 12.5506 12.7802 12.5782 12.9109 12.6329C13.0416 12.6876 13.1596 12.7682 13.2579 12.8698C13.3561 12.9714 13.4324 13.0919 13.4821 13.2238C13.5318 13.3558 13.5539 13.4964 13.547 13.6371C13.54 13.7778 13.5043 13.9157 13.4419 14.0422C13.3794 14.1687 13.2917 14.2812 13.1839 14.3728C13.0762 14.4644 12.9508 14.5332 12.8154 14.575L4.48265 17.6795C4.36912 17.7205 4.24929 17.7415 4.12851 17.7416Z" fill="#606060"/>
</svg>
