<svg width="67" height="67" viewBox="0 0 67 67" fill="none" xmlns="http://www.w3.org/2000/svg">
<g id="Edit Square">
<g id="Group 214">
<ellipse id="Ellipse 9" cx="33.4995" cy="33.0001" rx="29.5005" ry="29.5578" fill="#999999"/>
<g id="Group 213">
<path id="Vector" d="M32.239 19.8176C31.7537 19.9826 31.3072 20.3806 31.1131 20.8076C30.948 21.1765 30.9286 21.5065 30.9286 25.156V29.1162H28.6089C25.7941 29.1162 25.4932 29.1938 25.4932 29.9121C25.4932 30.2421 32.8213 37.5605 33.1611 37.5605C33.3455 37.5605 34.2482 36.7161 37.0727 33.8916C39.0915 31.8824 40.761 30.1353 40.7901 30.0188C40.8775 29.6791 40.7319 29.3976 40.3825 29.252C40.1301 29.1453 39.5089 29.1162 37.6842 29.1162H35.3061L35.277 25.2046C35.2479 21.458 35.2382 21.2833 35.0441 20.8562C34.8208 20.3709 34.3743 19.9923 33.8502 19.8079C33.4522 19.672 32.6369 19.6817 32.239 19.8176Z" fill="white"/>
<path id="Vector_2" d="M20.1055 37.8518C19.9987 37.8906 19.8046 38.0459 19.6687 38.1915L19.426 38.4536L19.3969 41.9478C19.3678 45.3644 19.3775 45.4421 19.5813 45.7721C19.989 46.4418 18.9601 46.3933 33.5777 46.3933H46.8169L47.244 46.0147L47.6711 45.6362L47.7002 42.239C47.7293 38.4536 47.7099 38.308 47.1178 37.9489C46.8946 37.813 46.6325 37.7547 46.2442 37.7547C45.7589 37.7547 45.6425 37.7936 45.3513 38.0556C45.1571 38.2206 44.963 38.5118 44.9048 38.706C44.8563 38.9001 44.8077 40.0842 44.8077 41.3266V43.5785L33.5291 43.5591L22.2408 43.5299L22.1923 41.0549C22.1438 38.3662 22.1243 38.2789 21.5808 37.9489C21.2508 37.745 20.4743 37.6965 20.1055 37.8518Z" fill="white"/>
</g>
</g>
</g>
</svg>
